<svg width="8.000000" height="8.000000" viewBox="0 0 8 8" fill="none" xmlns="http://www.w3.org/2000/svg" xmlns:xlink="http://www.w3.org/1999/xlink">
	<desc>
			Created with Pixso.
	</desc>
	<defs/>
	<path id="©" d="M-0.08 1.2Q-0.59 2.08 -0.59 3.25Q-0.59 4.24 -0.21 5.06Q-0.17 5.15 -0.12 5.24Q0.1 5.65 0.4 5.97Q0.76 6.36 1.24 6.63C1.83 6.97 2.51 7.14 3.27 7.14Q4.29 7.14 5.1 6.72Q5.18 6.68 5.26 6.63Q5.74 6.36 6.1 5.97Q6.39 5.65 6.6 5.24Q6.65 5.15 6.7 5.06Q7.08 4.24 7.08 3.25Q7.08 2.06 6.56 1.16Q6.34 0.78 6.02 0.45Q5.69 0.11 5.29 -0.13Q4.43 -0.64 3.27 -0.64Q2.07 -0.64 1.19 -0.11Q0.8 0.12 0.48 0.45Q0.14 0.79 -0.08 1.2ZM0.84 1.7Q1 1.42 1.24 1.17Q1.49 0.9 1.8 0.72Q2.42 0.35 3.27 0.35Q4.1 0.35 4.71 0.72Q5.01 0.9 5.26 1.17C5.77 1.71 6.02 2.4 6.02 3.25Q6.02 4.17 5.62 4.85Q5.47 5.11 5.26 5.33C4.76 5.88 4.1 6.15 3.27 6.15Q2.42 6.15 1.8 5.78Q1.49 5.6 1.24 5.33Q1 5.08 0.84 4.79Q0.46 4.13 0.46 3.25Q0.46 2.37 0.84 1.7ZM1.53 2.19Q1.26 2.64 1.26 3.25Q1.26 3.85 1.52 4.31Q1.65 4.53 1.83 4.72Q2 4.89 2.21 5.01Q2.68 5.29 3.31 5.29Q4.06 5.29 4.53 4.92Q5.02 4.54 5.18 3.74L3.96 3.74C3.86 4.05 3.64 4.2 3.31 4.2C3.05 4.2 2.85 4.11 2.71 3.94C2.57 3.77 2.5 3.54 2.5 3.25Q2.5 2.85 2.69 2.6Q2.7 2.59 2.71 2.58C2.85 2.41 3.05 2.33 3.31 2.33C3.46 2.33 3.58 2.35 3.67 2.41C3.76 2.47 3.83 2.57 3.88 2.71L5.15 2.71Q4.97 1.95 4.49 1.58Q4.03 1.23 3.31 1.23Q2.66 1.23 2.19 1.52Q2 1.63 1.83 1.8Q1.65 1.98 1.53 2.19Z" fill="#FFFFFF" fill-opacity="1.000000" fill-rule="evenodd"/>
</svg>
